# xmcd
#
# Track frame offsets:
#	150
#	30975
#	61679
#	89462
#	130775
#	156228
#	187157
#	211740
#
# Disc length: 3163 seconds
#
# Revision: 2
# Processed by: cddbd v1.5.1PL2 Copyright (c) Steve Scherf et al.
# Submitted via: EasyCDDAExtractor 9.0.0.1
#
DISCID=620c5908
DTITLE=Eric Clapton - 24 Nights [CD1]
DYEAR=1991
DGENRE=Blues
TTITLE0=Badge
TTITLE1=Running On Faith
TTITLE2=White Room
TTITLE3=Sunshine Of Your Love
TTITLE4=Watch Yourself
TTITLE5=Have You Ever Loved A Woman
TTITLE6=Worried Life Blues
TTITLE7=Hoodoo Man
EXTD=YEAR: 1991 ID3G: 0\nRecorded life at The Royal Albert Hall,\nLondon. 1990
EXTD=and 1991\n
EXTT0=
EXTT1=
EXTT2=
EXTT3=
EXTT4=
EXTT5=
EXTT6=
EXTT7=
PLAYORDER=
